<svg width="13" height="16" viewBox="0 0 13 16" fill="none" xmlns="http://www.w3.org/2000/svg">
<path d="M1.407 15.042C1.127 15.042 0.931 15.021 0.819 14.979C0.721 14.923 0.672 14.846 0.672 14.748C0.672 14.692 0.693 14.622 0.735 14.538C0.777 14.454 0.826 14.377 0.882 14.307L5.565 7.314L1.323 0.93C1.281 0.86 1.239 0.79 1.197 0.72C1.169 0.649999 1.155 0.593999 1.155 0.552C1.155 0.439999 1.211 0.362999 1.323 0.320999C1.435 0.278999 1.617 0.258 1.869 0.258H2.121C2.275 0.258 2.408 0.278999 2.52 0.320999C2.632 0.348999 2.709 0.411999 2.751 0.509999L6.468 6.117L10.185 0.552C10.269 0.439999 10.374 0.362999 10.5 0.320999C10.64 0.278999 10.787 0.258 10.941 0.258H11.046C11.298 0.258 11.473 0.286 11.571 0.342C11.683 0.383999 11.739 0.453999 11.739 0.552C11.739 0.608 11.718 0.678 11.676 0.761999C11.634 0.845999 11.585 0.922999 11.529 0.992999L7.287 7.251L11.97 14.37C12.026 14.454 12.068 14.531 12.096 14.601C12.138 14.657 12.159 14.713 12.159 14.769C12.159 14.867 12.096 14.937 11.97 14.979C11.858 15.021 11.683 15.042 11.445 15.042H11.172C11.004 15.042 10.864 15.021 10.752 14.979C10.654 14.937 10.57 14.867 10.5 14.769L6.363 8.469L2.226 14.748C2.17 14.86 2.079 14.937 1.953 14.979C1.827 15.021 1.687 15.042 1.533 15.042H1.407Z" fill="#256E8A"/>
</svg>
