<svg width="50" height="21" viewBox="0 0 50 21" fill="none" xmlns="http://www.w3.org/2000/svg">
<path d="M0 19.1211V0.973135C0 0.447587 0.415537 0.0211792 0.927686 0.0211792H11.2372C11.7493 0.0211792 12.1648 0.447587 12.1648 0.973135V2.38455C12.1648 2.91009 11.7493 3.3365 11.2372 3.3365H4.80984C4.29769 3.3365 3.88215 3.76291 3.88215 4.28846V7.03239C3.88215 7.55794 4.29769 7.98435 4.80984 7.98435H10.7593C11.2714 7.98435 11.687 8.41076 11.687 8.93631V10.3189C11.687 10.8445 11.2714 11.2709 10.7593 11.2709H4.80984C4.29769 11.2709 3.88215 11.6973 3.88215 12.2228V15.8025C3.88215 16.3281 4.29769 16.7545 4.80984 16.7545H11.6859C12.1981 16.7545 12.6136 17.1809 12.6136 17.7065V19.1179C12.6136 19.6434 12.1981 20.0698 11.6859 20.0698H0.927686C0.415537 20.0698 0 19.6434 0 19.1179V19.1211Z" fill="#FDFEFF"/>
<path d="M17.2905 0.0211792H14.6415C14.3007 0.0211792 14.0244 0.30468 14.0244 0.654395V19.4398C14.0244 19.7895 14.3007 20.073 14.6415 20.073H17.2905C17.6313 20.073 17.9076 19.7895 17.9076 19.4398V0.654395C17.9076 0.30468 17.6313 0.0211792 17.2905 0.0211792Z" fill="#FDFEFF"/>
<path d="M29.3764 19.8438L25.2615 14.76C25.033 14.4775 24.6185 14.453 24.3598 14.7067C24.2382 14.8261 24.1697 14.9913 24.1697 15.164V19.4387C24.1697 19.7884 23.8934 20.072 23.5526 20.072H20.9347C20.594 20.072 20.3177 19.7884 20.3177 19.4387V0.654395C20.3177 0.304741 20.594 0.0211792 20.9347 0.0211792H23.5526C23.8934 0.0211792 24.1697 0.304741 24.1697 0.654395V10.8679C24.2507 10.7773 24.3307 10.691 24.4086 10.6078L28.6959 6.18171C28.8112 6.06232 28.9691 5.99516 29.1333 5.99516H32.2976C32.8596 5.99516 33.1287 6.703 32.7162 7.09422L28.0248 11.5321C27.7797 11.7645 27.7589 12.1536 27.977 12.4126L33.5691 19.0262C33.9161 19.4366 33.6325 20.0741 33.1027 20.0741H29.8511C29.6672 20.0741 29.4938 19.9899 29.3764 19.846V19.8438Z" fill="#FDFEFF"/>
<path d="M28.643 3.18194V0.8271C28.643 0.610698 28.7157 0.42521 28.8611 0.271703C29.0055 0.118196 29.1811 0.0414429 29.3868 0.0414429H31.8655C31.9008 0.0414429 31.9299 0.0542351 31.9527 0.0776876C31.9756 0.102206 31.988 0.133121 31.988 0.170431V0.697045C31.988 0.734356 31.9766 0.765271 31.9527 0.789789C31.9288 0.814308 31.9008 0.826034 31.8655 0.826034H29.5094C29.474 0.826034 29.445 0.83776 29.4211 0.862279C29.3972 0.886797 29.3868 0.917712 29.3868 0.955022V3.05188C29.3868 3.0892 29.3982 3.12011 29.4211 3.14463C29.4439 3.16915 29.473 3.18087 29.5094 3.18087H31.8655C31.9008 3.18087 31.9299 3.19367 31.9527 3.21712C31.9756 3.24164 31.988 3.27255 31.988 3.30986V3.83648C31.988 3.87379 31.9766 3.9047 31.9527 3.92922C31.9288 3.95374 31.9008 3.96546 31.8655 3.96546H29.3868C29.1811 3.96546 29.0066 3.88871 28.8611 3.7352C28.7157 3.5817 28.643 3.39727 28.643 3.17981V3.18194Z" fill="#1D1D1B"/>
<path d="M32.523 3.18179V0.171347C32.523 0.134036 32.5345 0.103122 32.5573 0.0786031C32.5802 0.0540846 32.6093 0.0423584 32.6456 0.0423584H33.1443C33.1796 0.0423584 33.2087 0.0551506 33.2315 0.0786031C33.2544 0.103122 33.2658 0.134036 33.2658 0.171347V3.0528C33.2658 3.09011 33.2772 3.12103 33.3001 3.14554C33.3229 3.17006 33.352 3.18179 33.3884 3.18179H35.7445C35.7798 3.18179 35.8089 3.19458 35.8318 3.21803C35.8546 3.24255 35.8671 3.27347 35.8671 3.31078V3.83739C35.8671 3.8747 35.8557 3.90562 35.8318 3.93013C35.8079 3.95465 35.7798 3.96638 35.7445 3.96638H33.2658C33.0601 3.96638 32.8856 3.88963 32.7402 3.73612C32.5947 3.58261 32.522 3.39819 32.522 3.18072L32.523 3.18179Z" fill="#1D1D1B"/>
<path d="M36.2442 3.18179V0.171347C36.2442 0.134036 36.2556 0.103122 36.2785 0.0786031C36.3013 0.0540846 36.3304 0.0423584 36.3668 0.0423584H36.8654C36.9008 0.0423584 36.9298 0.0551506 36.9527 0.0786031C36.9755 0.103122 36.987 0.134036 36.987 0.171347V3.0528C36.987 3.09011 36.9984 3.12103 37.0213 3.14554C37.0441 3.17006 37.0732 3.18179 37.1096 3.18179H39.0948C39.1301 3.18179 39.1592 3.17006 39.1821 3.14554C39.2049 3.12103 39.2163 3.09011 39.2163 3.0528V0.171347C39.2163 0.134036 39.2278 0.103122 39.2506 0.0786031C39.2735 0.0540846 39.3026 0.0423584 39.3389 0.0423584H39.8376C39.8729 0.0423584 39.902 0.0551506 39.9248 0.0786031C39.9477 0.103122 39.9591 0.134036 39.9591 0.171347V3.18179C39.9591 3.39819 39.8864 3.58368 39.7409 3.73719C39.5955 3.89069 39.421 3.96745 39.2153 3.96745H36.9859C36.7802 3.96745 36.6057 3.89069 36.4603 3.73719C36.3148 3.58368 36.2421 3.39926 36.2421 3.18179H36.2442Z" fill="#1D1D1B"/>
<path d="M40.4951 3.18194V0.8271C40.4951 0.610698 40.5678 0.42521 40.7133 0.271703C40.8577 0.118196 41.0332 0.0414429 41.2389 0.0414429H43.4683C43.674 0.0414429 43.8485 0.118196 43.9939 0.271703C44.1394 0.42521 44.2121 0.610698 44.2121 0.8271V1.33133C44.2121 1.51788 44.1498 1.67672 44.0261 1.80784L43.8402 2.00399L44.0261 2.20013C44.1498 2.33125 44.2121 2.49009 44.2121 2.67665V3.18087C44.2121 3.39727 44.1394 3.58276 43.9939 3.73627C43.8485 3.88978 43.674 3.96653 43.4683 3.96653H41.2389C41.0332 3.96653 40.8587 3.88978 40.7133 3.73627C40.5678 3.58276 40.4951 3.39834 40.4951 3.18087V3.18194ZM41.3605 1.61169H43.3457C43.381 1.61169 43.4101 1.59996 43.433 1.57545C43.4558 1.55093 43.4672 1.52001 43.4672 1.4827V0.956088C43.4672 0.918778 43.4558 0.887863 43.433 0.863345C43.4101 0.838826 43.381 0.8271 43.3457 0.8271H41.3605C41.3252 0.8271 41.2961 0.838826 41.2722 0.863345C41.2483 0.887863 41.2379 0.918778 41.2379 0.956088V1.4827C41.2379 1.52001 41.2493 1.55093 41.2722 1.57545C41.295 1.59996 41.3241 1.61169 41.3605 1.61169ZM41.3605 3.18194H43.3457C43.381 3.18194 43.4101 3.17021 43.433 3.14569C43.4558 3.12118 43.4672 3.09026 43.4672 3.05295V2.52634C43.4672 2.48903 43.4558 2.45811 43.433 2.43359C43.4101 2.40907 43.381 2.39735 43.3457 2.39735H41.3605C41.3252 2.39735 41.2961 2.40907 41.2722 2.43359C41.2483 2.45811 41.2379 2.48903 41.2379 2.52634V3.05295C41.2379 3.09026 41.2493 3.12118 41.2722 3.14569C41.295 3.17021 41.3241 3.18194 41.3605 3.18194Z" fill="#1D1D1B"/>
<mask id="mask0_2076_1397" style="mask-type:luminance" maskUnits="userSpaceOnUse" x="20" y="0" width="15" height="21">
<path d="M29.5613 20.073L24.8387 14.2387L24.1697 14.8954V19.4409C24.1697 19.7905 23.8934 20.073 23.5537 20.073H20.9389C20.595 20.073 20.3166 19.7873 20.3166 19.4345V0.0211792H24.1686V10.8679C24.2497 10.7773 24.3297 10.691 24.4076 10.6078L28.8756 5.99516H33.8766L27.5833 11.9478L34.4532 20.073H29.5592H29.5613Z" fill="white"/>
</mask>
<g mask="url(#mask0_2076_1397)">
<path d="M21.13 21.4397L21.1508 23.3671H19.4835L19.5043 21.4397H15.4632L18.2982 16.8836H16.875L19.604 12.2336H18.5091L20.3166 8.8703L22.1221 12.2336H21.0303L23.7562 16.8836H22.3361L25.1711 21.4397H21.13Z" fill="#12B1F0"/>
</g>
<mask id="mask1_2076_1397" style="mask-type:luminance" maskUnits="userSpaceOnUse" x="14" y="0" width="4" height="21">
<path d="M14.0244 19.4473V0.0211792H17.9076V19.3876C17.9076 19.766 17.6084 20.072 17.2406 20.072H14.6342C14.2976 20.072 14.0244 19.7916 14.0244 19.4462V19.4473Z" fill="white"/>
</mask>
<g mask="url(#mask1_2076_1397)">
<path d="M18.72 21.3503L18.7407 23.2777H17.0734L17.0952 21.3503H13.0541L15.8881 16.7942H14.4649L17.1939 12.1442H16.099L17.9076 8.78088L19.7131 12.1442H18.6202L21.3461 16.7942H19.926L22.7611 21.3503H18.72Z" fill="#12B1F0"/>
</g>
<mask id="mask2_2076_1397" style="mask-type:luminance" maskUnits="userSpaceOnUse" x="0" y="0" width="13" height="21">
<path d="M0 19.0486V0.0211792H12.1659V3.3365H3.88215V7.98542H11.688V11.272H3.88215V16.7566H12.6147V20.072H0.998328C0.446702 20.072 0 19.6136 0 19.0475V19.0486Z" fill="white"/>
</mask>
<g mask="url(#mask2_2076_1397)">
<path d="M0.812392 21.4064L0.833169 23.3349H-0.833135L-0.812358 21.4064H-4.85345L-2.01845 16.8502H-3.44271L-0.712629 12.2003H-1.80861L1.71661e-05 8.83698L1.80552 12.2003H0.713702L3.43962 16.8502H2.01953L4.85349 21.4064H0.812392Z" fill="#12B1F0"/>
</g>
<path d="M0 19.1211V0.973135C0 0.447587 0.415537 0.0211792 0.927686 0.0211792H11.2372C11.7493 0.0211792 12.1648 0.447587 12.1648 0.973135V2.38455C12.1648 2.91009 11.7493 3.3365 11.2372 3.3365H4.80984C4.29769 3.3365 3.88215 3.76291 3.88215 4.28846V7.03239C3.88215 7.55794 4.29769 7.98435 4.80984 7.98435H10.7593C11.2714 7.98435 11.687 8.41076 11.687 8.93631V10.3189C11.687 10.8445 11.2714 11.2709 10.7593 11.2709H4.80984C4.29769 11.2709 3.88215 11.6973 3.88215 12.2228V15.8025C3.88215 16.3281 4.29769 16.7545 4.80984 16.7545H11.6859C12.1981 16.7545 12.6136 17.1809 12.6136 17.7065V19.1179C12.6136 19.6434 12.1981 20.0698 11.6859 20.0698H0.927686C0.415537 20.0698 0 19.6434 0 19.1179V19.1211Z" fill="#FDFEFF"/>
<path d="M17.2905 0.0211792H14.6415C14.3007 0.0211792 14.0244 0.30468 14.0244 0.654395V19.4398C14.0244 19.7895 14.3007 20.073 14.6415 20.073H17.2905C17.6313 20.073 17.9076 19.7895 17.9076 19.4398V0.654395C17.9076 0.30468 17.6313 0.0211792 17.2905 0.0211792Z" fill="#FDFEFF"/>
<path d="M29.3764 19.8438L25.2615 14.76C25.033 14.4775 24.6185 14.453 24.3598 14.7067C24.2382 14.8261 24.1697 14.9913 24.1697 15.164V19.4387C24.1697 19.7884 23.8934 20.072 23.5526 20.072H20.9347C20.594 20.072 20.3177 19.7884 20.3177 19.4387V0.654395C20.3177 0.304741 20.594 0.0211792 20.9347 0.0211792H23.5526C23.8934 0.0211792 24.1697 0.304741 24.1697 0.654395V10.8679C24.2507 10.7773 24.3307 10.691 24.4086 10.6078L28.6959 6.18171C28.8112 6.06232 28.9691 5.99516 29.1333 5.99516H32.2976C32.8596 5.99516 33.1287 6.703 32.7162 7.09422L28.0248 11.5321C27.7797 11.7645 27.7589 12.1536 27.977 12.4126L33.5691 19.0262C33.9161 19.4366 33.6325 20.0741 33.1027 20.0741H29.8511C29.6672 20.0741 29.4938 19.9899 29.3764 19.846V19.8438Z" fill="#FDFEFF"/>
<path d="M28.643 3.18194V0.8271C28.643 0.610698 28.7157 0.42521 28.8611 0.271703C29.0055 0.118196 29.1811 0.0414429 29.3868 0.0414429H31.8655C31.9008 0.0414429 31.9299 0.0542351 31.9527 0.0776876C31.9756 0.102206 31.988 0.133121 31.988 0.170431V0.697045C31.988 0.734356 31.9766 0.765271 31.9527 0.789789C31.9288 0.814308 31.9008 0.826034 31.8655 0.826034H29.5094C29.474 0.826034 29.445 0.83776 29.4211 0.862279C29.3972 0.886797 29.3868 0.917712 29.3868 0.955022V3.05188C29.3868 3.0892 29.3982 3.12011 29.4211 3.14463C29.4439 3.16915 29.473 3.18087 29.5094 3.18087H31.8655C31.9008 3.18087 31.9299 3.19367 31.9527 3.21712C31.9756 3.24164 31.988 3.27255 31.988 3.30986V3.83648C31.988 3.87379 31.9766 3.9047 31.9527 3.92922C31.9288 3.95374 31.9008 3.96546 31.8655 3.96546H29.3868C29.1811 3.96546 29.0066 3.88871 28.8611 3.7352C28.7157 3.5817 28.643 3.39727 28.643 3.17981V3.18194Z" fill="#1D1D1B"/>
<path d="M32.523 3.18179V0.171347C32.523 0.134036 32.5345 0.103122 32.5573 0.0786031C32.5802 0.0540846 32.6093 0.0423584 32.6456 0.0423584H33.1443C33.1796 0.0423584 33.2087 0.0551506 33.2315 0.0786031C33.2544 0.103122 33.2658 0.134036 33.2658 0.171347V3.0528C33.2658 3.09011 33.2772 3.12103 33.3001 3.14554C33.3229 3.17006 33.352 3.18179 33.3884 3.18179H35.7445C35.7798 3.18179 35.8089 3.19458 35.8318 3.21803C35.8546 3.24255 35.8671 3.27347 35.8671 3.31078V3.83739C35.8671 3.8747 35.8557 3.90562 35.8318 3.93013C35.8079 3.95465 35.7798 3.96638 35.7445 3.96638H33.2658C33.0601 3.96638 32.8856 3.88963 32.7402 3.73612C32.5947 3.58261 32.522 3.39819 32.522 3.18072L32.523 3.18179Z" fill="#1D1D1B"/>
<path d="M36.2442 3.18179V0.171347C36.2442 0.134036 36.2556 0.103122 36.2785 0.0786031C36.3013 0.0540846 36.3304 0.0423584 36.3668 0.0423584H36.8654C36.9008 0.0423584 36.9298 0.0551506 36.9527 0.0786031C36.9755 0.103122 36.987 0.134036 36.987 0.171347V3.0528C36.987 3.09011 36.9984 3.12103 37.0213 3.14554C37.0441 3.17006 37.0732 3.18179 37.1096 3.18179H39.0948C39.1301 3.18179 39.1592 3.17006 39.1821 3.14554C39.2049 3.12103 39.2163 3.09011 39.2163 3.0528V0.171347C39.2163 0.134036 39.2278 0.103122 39.2506 0.0786031C39.2735 0.0540846 39.3026 0.0423584 39.3389 0.0423584H39.8376C39.8729 0.0423584 39.902 0.0551506 39.9248 0.0786031C39.9477 0.103122 39.9591 0.134036 39.9591 0.171347V3.18179C39.9591 3.39819 39.8864 3.58368 39.7409 3.73719C39.5955 3.89069 39.421 3.96745 39.2153 3.96745H36.9859C36.7802 3.96745 36.6057 3.89069 36.4603 3.73719C36.3148 3.58368 36.2421 3.39926 36.2421 3.18179H36.2442Z" fill="#1D1D1B"/>
<path d="M40.4951 3.18194V0.8271C40.4951 0.610698 40.5678 0.42521 40.7133 0.271703C40.8577 0.118196 41.0332 0.0414429 41.2389 0.0414429H43.4683C43.674 0.0414429 43.8485 0.118196 43.9939 0.271703C44.1394 0.42521 44.2121 0.610698 44.2121 0.8271V1.33133C44.2121 1.51788 44.1498 1.67672 44.0261 1.80784L43.8402 2.00399L44.0261 2.20013C44.1498 2.33125 44.2121 2.49009 44.2121 2.67665V3.18087C44.2121 3.39727 44.1394 3.58276 43.9939 3.73627C43.8485 3.88978 43.674 3.96653 43.4683 3.96653H41.2389C41.0332 3.96653 40.8587 3.88978 40.7133 3.73627C40.5678 3.58276 40.4951 3.39834 40.4951 3.18087V3.18194ZM41.3605 1.61169H43.3457C43.381 1.61169 43.4101 1.59996 43.433 1.57545C43.4558 1.55093 43.4672 1.52001 43.4672 1.4827V0.956088C43.4672 0.918778 43.4558 0.887863 43.433 0.863345C43.4101 0.838826 43.381 0.8271 43.3457 0.8271H41.3605C41.3252 0.8271 41.2961 0.838826 41.2722 0.863345C41.2483 0.887863 41.2379 0.918778 41.2379 0.956088V1.4827C41.2379 1.52001 41.2493 1.55093 41.2722 1.57545C41.295 1.59996 41.3241 1.61169 41.3605 1.61169ZM41.3605 3.18194H43.3457C43.381 3.18194 43.4101 3.17021 43.433 3.14569C43.4558 3.12118 43.4672 3.09026 43.4672 3.05295V2.52634C43.4672 2.48903 43.4558 2.45811 43.433 2.43359C43.4101 2.40907 43.381 2.39735 43.3457 2.39735H41.3605C41.3252 2.39735 41.2961 2.40907 41.2722 2.43359C41.2483 2.45811 41.2379 2.48903 41.2379 2.52634V3.05295C41.2379 3.09026 41.2493 3.12118 41.2722 3.14569C41.295 3.17021 41.3241 3.18194 41.3605 3.18194Z" fill="#1D1D1B"/>
<mask id="mask3_2076_1397" style="mask-type:luminance" maskUnits="userSpaceOnUse" x="20" y="0" width="15" height="21">
<path d="M29.5613 20.073L24.8387 14.2387L24.1697 14.8954V19.4409C24.1697 19.7905 23.8934 20.073 23.5537 20.073H20.9389C20.595 20.073 20.3166 19.7873 20.3166 19.4345V0.0211792H24.1686V10.8679C24.2497 10.7773 24.3297 10.691 24.4076 10.6078L28.8756 5.99516H33.8766L27.5833 11.9478L34.4532 20.073H29.5592H29.5613Z" fill="white"/>
</mask>
<g mask="url(#mask3_2076_1397)">
<path d="M21.13 21.4397L21.1508 23.3671H19.4835L19.5043 21.4397H15.4632L18.2982 16.8836H16.875L19.604 12.2336H18.5091L20.3166 8.8703L22.1221 12.2336H21.0303L23.7562 16.8836H22.3361L25.1711 21.4397H21.13Z" fill="#12B1F0"/>
</g>
<mask id="mask4_2076_1397" style="mask-type:luminance" maskUnits="userSpaceOnUse" x="14" y="0" width="4" height="21">
<path d="M14.0244 19.4473V0.0211792H17.9076V19.3876C17.9076 19.766 17.6084 20.072 17.2406 20.072H14.6342C14.2976 20.072 14.0244 19.7916 14.0244 19.4462V19.4473Z" fill="white"/>
</mask>
<g mask="url(#mask4_2076_1397)">
<path d="M18.72 21.3503L18.7407 23.2777H17.0734L17.0952 21.3503H13.0541L15.8881 16.7942H14.4649L17.1939 12.1442H16.099L17.9076 8.78088L19.7131 12.1442H18.6202L21.3461 16.7942H19.926L22.7611 21.3503H18.72Z" fill="#12B1F0"/>
</g>
<mask id="mask5_2076_1397" style="mask-type:luminance" maskUnits="userSpaceOnUse" x="0" y="0" width="13" height="21">
<path d="M0 19.0486V0.0211792H12.1659V3.3365H3.88215V7.98542H11.688V11.272H3.88215V16.7566H12.6147V20.072H0.998328C0.446702 20.072 0 19.6136 0 19.0475V19.0486Z" fill="white"/>
</mask>
<g mask="url(#mask5_2076_1397)">
<path d="M0.812392 21.4064L0.833169 23.3349H-0.833135L-0.812358 21.4064H-4.85345L-2.01845 16.8502H-3.44271L-0.712629 12.2003H-1.80861L1.71661e-05 8.83698L1.80552 12.2003H0.713702L3.43962 16.8502H2.01953L4.85349 21.4064H0.812392Z" fill="#12B1F0"/>
</g>
<path d="M49.9444 19.1763L44.2505 6.3649C44.1498 6.13891 43.9306 5.995 43.6896 5.995H41.108C40.866 5.995 40.6468 6.13997 40.5471 6.3649L34.8532 19.1763C34.6672 19.5953 34.9654 20.0718 35.4141 20.0718H38.2117L40.0515 16.6413H38.8901L41.1299 12.5617H40.2739L42.3993 8.86899L44.5248 12.5617H43.6688L45.9085 16.6413H44.745L46.5848 20.0718H49.3824C49.8312 20.0718 50.1304 19.5953 49.9434 19.1763H49.9444Z" fill="#FDFEFF"/>
</svg>
