<svg width="15" height="3" viewBox="0 0 15 3" fill="none" xmlns="http://www.w3.org/2000/svg">
<g clip-path="url(#clip0_2076_1775)">
<path d="M1.73077 3C2.68665 3 3.46154 2.32843 3.46154 1.5C3.46154 0.671573 2.68665 0 1.73077 0C0.774892 0 0 0.671573 0 1.5C0 2.32843 0.774892 3 1.73077 3Z" fill="#8C8C8C"/>
<path d="M7.5 3C8.45587 3 9.23076 2.32843 9.23076 1.5C9.23076 0.671573 8.45587 0 7.5 0C6.54412 0 5.76923 0.671573 5.76923 1.5C5.76923 2.32843 6.54412 3 7.5 3Z" fill="#8C8C8C"/>
<path d="M13.2692 3C14.2251 3 15 2.32843 15 1.5C15 0.671573 14.2251 0 13.2692 0C12.3133 0 11.5385 0.671573 11.5385 1.5C11.5385 2.32843 12.3133 3 13.2692 3Z" fill="#8C8C8C"/>
</g>
<defs>
<clipPath id="clip0_2076_1775">
<rect width="15" height="3" fill="white"/>
</clipPath>
</defs>
</svg>
